# xmcd
#
# Track frame offsets:
#	150
#	10398
#	23300
#	36867
#	45821
#	55421
#	66161
#	79548
#	89318
#	98720
#	108559
#	124878
#	135584
#	148799
#	158798
#	173625
#	183661
#	196963
#	209055
#	220017
#
# Disc length: 3146 seconds
#
# Revision: 1
# Processed by: cddbd v1.5.1PL2 Copyright (c) Steve Scherf et al.
# Submitted via: audiograbber 1.83.01
#
DISCID=110c4814
DTITLE=Various Artist - The Little Darlin' Sound Of Should Have Been Hits
DYEAR=2005
DGENRE=Country
TTITLE0=Joe Pain - Down At Kelly's
TTITLE1=Eddie Reday - Hurtin' Losers Song
TTITLE2=Herbert Brothers - Why Is This All Gone Wrong
TTITLE3=Dugg Collins - Talk About Me
TTITLE4=Roger White - Did You Ever
TTITLE5=Jackie Frazier - Jukebox Charlie
TTITLE6=Merv Shiner - El Bandito
TTITLE7=Lee Potter - In the City
TTITLE8=Woodward Brothers - Hot Rod Race, Navy Style
TTITLE9=Lee Howell - Too Light To Fight, Too Thin To Win
TTITLE10=Mark Jevicky - Make Me One More Memory
TTITLE11=Larry Steele - Why Don't They Want Me
TTITLE12=Tommy Dee - She Called Me Baby (All Night Long)
TTITLE13=Frank Myers - Half Empty Bed
TTITLE14=Hoot Hester - I Still Love Her Memory
TTITLE15=Willie Samples - Beautiful Dreamer
TTITLE16=Leb Brenson - Everything You Touch Turns To Hurt
TTITLE17=Roy Weldon - Problem Solving Doctor
TTITLE18=Bill Johnson - All American Boy
TTITLE19=Mark Brine - Blue Roses
EXTD=
EXTT0=
EXTT1=
EXTT2=
EXTT3=
EXTT4=
EXTT5=
EXTT6=
EXTT7=
EXTT8=
EXTT9=
EXTT10=
EXTT11=
EXTT12=
EXTT13=
EXTT14=
EXTT15=
EXTT16=
EXTT17=
EXTT18=
EXTT19=
PLAYORDER=
